<svg width="146" height="25" viewBox="0 0 146 25" fill="none" xmlns="http://www.w3.org/2000/svg">
<path d="M13.6477 7.42045C13.5568 6.50379 13.1667 5.79167 12.4773 5.28409C11.7879 4.77651 10.8523 4.52273 9.67045 4.52273C8.86742 4.52273 8.18939 4.63636 7.63636 4.86364C7.08333 5.08333 6.65909 5.39015 6.36364 5.78409C6.07576 6.17803 5.93182 6.625 5.93182 7.125C5.91667 7.54167 6.00379 7.9053 6.19318 8.21591C6.39015 8.52652 6.65909 8.79545 7 9.02273C7.34091 9.24242 7.73485 9.43561 8.18182 9.60227C8.62879 9.76136 9.10606 9.89773 9.61364 10.0114L11.7045 10.5114C12.7197 10.7386 13.6515 11.0417 14.5 11.4205C15.3485 11.7992 16.0833 12.2652 16.7045 12.8182C17.3258 13.3712 17.8068 14.0227 18.1477 14.7727C18.4962 15.5227 18.6742 16.3826 18.6818 17.3523C18.6742 18.7765 18.3106 20.0114 17.5909 21.0568C16.8788 22.0947 15.8485 22.9015 14.5 23.4773C13.1591 24.0455 11.5417 24.3295 9.64773 24.3295C7.76894 24.3295 6.13258 24.0417 4.73864 23.4659C3.35227 22.8902 2.26894 22.0379 1.48864 20.9091C0.715909 19.7727 0.310606 18.3674 0.272727 16.6932H5.03409C5.08712 17.4735 5.31061 18.125 5.70455 18.6477C6.10606 19.1629 6.64015 19.553 7.30682 19.8182C7.98106 20.0758 8.74242 20.2045 9.59091 20.2045C10.4242 20.2045 11.1477 20.0833 11.7614 19.8409C12.3826 19.5985 12.8636 19.2614 13.2045 18.8295C13.5455 18.3977 13.7159 17.9015 13.7159 17.3409C13.7159 16.8182 13.5606 16.3788 13.25 16.0227C12.947 15.6667 12.5 15.3636 11.9091 15.1136C11.3258 14.8636 10.6098 14.6364 9.76136 14.4318L7.22727 13.7955C5.26515 13.3182 3.71591 12.572 2.57955 11.5568C1.44318 10.5417 0.878788 9.17424 0.886364 7.45454C0.878788 6.04545 1.25379 4.81439 2.01136 3.76136C2.77652 2.70833 3.82576 1.88636 5.15909 1.29545C6.49242 0.704545 8.00758 0.40909 9.70455 0.40909C11.4318 0.40909 12.9394 0.704545 14.2273 1.29545C15.5227 1.88636 16.5303 2.70833 17.25 3.76136C17.9697 4.81439 18.3409 6.03409 18.3636 7.42045H13.6477ZM21.9915 24V0.727272H26.9119V10.3295H36.9006V0.727272H41.8097V24H36.9006V14.3864H26.9119V24H21.9915ZM67.2528 12.3636C67.2528 14.9015 66.7718 17.0606 65.8097 18.8409C64.8551 20.6212 63.5521 21.9811 61.9006 22.9205C60.2566 23.8523 58.4081 24.3182 56.3551 24.3182C54.2869 24.3182 52.4309 23.8485 50.7869 22.9091C49.143 21.9697 47.8438 20.6098 46.8892 18.8295C45.9347 17.0492 45.4574 14.8939 45.4574 12.3636C45.4574 9.82576 45.9347 7.66667 46.8892 5.88636C47.8438 4.10606 49.143 2.75 50.7869 1.81818C52.4309 0.878787 54.2869 0.40909 56.3551 0.40909C58.4081 0.40909 60.2566 0.878787 61.9006 1.81818C63.5521 2.75 64.8551 4.10606 65.8097 5.88636C66.7718 7.66667 67.2528 9.82576 67.2528 12.3636ZM62.2642 12.3636C62.2642 10.7197 62.018 9.33333 61.5256 8.20455C61.0407 7.07576 60.3551 6.2197 59.4688 5.63636C58.5824 5.05303 57.5445 4.76136 56.3551 4.76136C55.1657 4.76136 54.1278 5.05303 53.2415 5.63636C52.3551 6.2197 51.6657 7.07576 51.1733 8.20455C50.6884 9.33333 50.446 10.7197 50.446 12.3636C50.446 14.0076 50.6884 15.3939 51.1733 16.5227C51.6657 17.6515 52.3551 18.5076 53.2415 19.0909C54.1278 19.6742 55.1657 19.9659 56.3551 19.9659C57.5445 19.9659 58.5824 19.6742 59.4688 19.0909C60.3551 18.5076 61.0407 17.6515 61.5256 16.5227C62.018 15.3939 62.2642 14.0076 62.2642 12.3636ZM70.8977 24V0.727272H80.0795C81.8447 0.727272 83.3485 1.06439 84.5909 1.73864C85.8333 2.4053 86.7803 3.33333 87.4318 4.52273C88.0909 5.70454 88.4205 7.06818 88.4205 8.61364C88.4205 10.1591 88.0871 11.5227 87.4205 12.7045C86.7538 13.8864 85.7879 14.8068 84.5227 15.4659C83.2652 16.125 81.7424 16.4545 79.9545 16.4545H74.1023V12.5114H79.1591C80.1061 12.5114 80.8864 12.3485 81.5 12.0227C82.1212 11.6894 82.5833 11.2311 82.8864 10.6477C83.197 10.0568 83.3523 9.37879 83.3523 8.61364C83.3523 7.84091 83.197 7.16667 82.8864 6.59091C82.5833 6.00757 82.1212 5.55682 81.5 5.23864C80.8788 4.91288 80.0909 4.75 79.1364 4.75H75.8182V24H70.8977ZM93.2614 24.2955C92.5114 24.2955 91.8674 24.0303 91.3295 23.5C90.7992 22.9621 90.5341 22.3182 90.5341 21.5682C90.5341 20.8258 90.7992 20.1894 91.3295 19.6591C91.8674 19.1288 92.5114 18.8636 93.2614 18.8636C93.9886 18.8636 94.625 19.1288 95.1705 19.6591C95.7159 20.1894 95.9886 20.8258 95.9886 21.5682C95.9886 22.0682 95.8598 22.5265 95.6023 22.9432C95.3523 23.3523 95.0227 23.6818 94.6136 23.9318C94.2045 24.1742 93.7538 24.2955 93.2614 24.2955ZM120.588 8.875H115.611C115.52 8.23106 115.334 7.65909 115.054 7.15909C114.774 6.65151 114.414 6.2197 113.974 5.86364C113.535 5.50757 113.027 5.23485 112.452 5.04545C111.884 4.85606 111.266 4.76136 110.599 4.76136C109.395 4.76136 108.346 5.06061 107.452 5.65909C106.558 6.25 105.865 7.11364 105.372 8.25C104.88 9.37879 104.634 10.75 104.634 12.3636C104.634 14.0227 104.88 15.4167 105.372 16.5455C105.872 17.6742 106.569 18.5265 107.463 19.1023C108.357 19.678 109.391 19.9659 110.565 19.9659C111.224 19.9659 111.834 19.8788 112.395 19.7045C112.963 19.5303 113.467 19.2765 113.906 18.9432C114.346 18.6023 114.709 18.1894 114.997 17.7045C115.293 17.2197 115.497 16.6667 115.611 16.0455L120.588 16.0682C120.459 17.1364 120.137 18.1667 119.622 19.1591C119.115 20.1439 118.429 21.0265 117.565 21.8068C116.709 22.5795 115.687 23.1932 114.497 23.6477C113.315 24.0947 111.978 24.3182 110.486 24.3182C108.41 24.3182 106.554 23.8485 104.918 22.9091C103.289 21.9697 102.001 20.6098 101.054 18.8295C100.115 17.0492 99.6449 14.8939 99.6449 12.3636C99.6449 9.82576 100.122 7.66667 101.077 5.88636C102.031 4.10606 103.327 2.75 104.963 1.81818C106.599 0.878787 108.44 0.40909 110.486 0.40909C111.834 0.40909 113.084 0.598484 114.236 0.977272C115.395 1.35606 116.421 1.90909 117.315 2.63636C118.209 3.35606 118.937 4.23864 119.497 5.28409C120.065 6.32954 120.429 7.52651 120.588 8.875ZM145.503 12.3636C145.503 14.9015 145.022 17.0606 144.06 18.8409C143.105 20.6212 141.802 21.9811 140.151 22.9205C138.507 23.8523 136.658 24.3182 134.605 24.3182C132.537 24.3182 130.681 23.8485 129.037 22.9091C127.393 21.9697 126.094 20.6098 125.139 18.8295C124.185 17.0492 123.707 14.8939 123.707 12.3636C123.707 9.82576 124.185 7.66667 125.139 5.88636C126.094 4.10606 127.393 2.75 129.037 1.81818C130.681 0.878787 132.537 0.40909 134.605 0.40909C136.658 0.40909 138.507 0.878787 140.151 1.81818C141.802 2.75 143.105 4.10606 144.06 5.88636C145.022 7.66667 145.503 9.82576 145.503 12.3636ZM140.514 12.3636C140.514 10.7197 140.268 9.33333 139.776 8.20455C139.291 7.07576 138.605 6.2197 137.719 5.63636C136.832 5.05303 135.795 4.76136 134.605 4.76136C133.416 4.76136 132.378 5.05303 131.491 5.63636C130.605 6.2197 129.916 7.07576 129.423 8.20455C128.938 9.33333 128.696 10.7197 128.696 12.3636C128.696 14.0076 128.938 15.3939 129.423 16.5227C129.916 17.6515 130.605 18.5076 131.491 19.0909C132.378 19.6742 133.416 19.9659 134.605 19.9659C135.795 19.9659 136.832 19.6742 137.719 19.0909C138.605 18.5076 139.291 17.6515 139.776 16.5227C140.268 15.3939 140.514 14.0076 140.514 12.3636Z" fill="black"/>
</svg>
