<svg width="64" height="65" viewBox="0 0 64 65" fill="none" xmlns="http://www.w3.org/2000/svg">
<rect y="0.5" width="64" height="64" rx="32" fill="white"/>
<path d="M7.26136 44.2955C6.51136 44.2955 5.86742 44.0303 5.32955 43.5C4.79924 42.9621 4.53409 42.3182 4.53409 41.5682C4.53409 40.8258 4.79924 40.1894 5.32955 39.6591C5.86742 39.1288 6.51136 38.8636 7.26136 38.8636C7.98864 38.8636 8.625 39.1288 9.17045 39.6591C9.71591 40.1894 9.98864 40.8258 9.98864 41.5682C9.98864 42.0682 9.85985 42.5265 9.60227 42.9432C9.35227 43.3523 9.02273 43.6818 8.61364 43.9318C8.20455 44.1742 7.75379 44.2955 7.26136 44.2955ZM34.5881 28.875H29.6108C29.5199 28.2311 29.3343 27.6591 29.054 27.1591C28.7737 26.6515 28.4138 26.2197 27.9744 25.8636C27.535 25.5076 27.0275 25.2348 26.4517 25.0455C25.8835 24.8561 25.2661 24.7614 24.5994 24.7614C23.3949 24.7614 22.3456 25.0606 21.4517 25.6591C20.5578 26.25 19.8646 27.1136 19.3722 28.25C18.8797 29.3788 18.6335 30.75 18.6335 32.3636C18.6335 34.0227 18.8797 35.4167 19.3722 36.5455C19.8722 37.6742 20.5691 38.5265 21.4631 39.1023C22.357 39.678 23.3911 39.9659 24.5653 39.9659C25.2244 39.9659 25.8343 39.8788 26.3949 39.7045C26.9631 39.5303 27.4669 39.2765 27.9062 38.9432C28.3456 38.6023 28.7093 38.1894 28.9972 37.7045C29.2926 37.2197 29.4972 36.6667 29.6108 36.0455L34.5881 36.0682C34.4593 37.1364 34.1373 38.1667 33.6222 39.1591C33.1146 40.1439 32.429 41.0265 31.5653 41.8068C30.7093 42.5795 29.6866 43.1932 28.4972 43.6477C27.3153 44.0947 25.9782 44.3182 24.4858 44.3182C22.41 44.3182 20.554 43.8485 18.9176 42.9091C17.2888 41.9697 16.0009 40.6098 15.054 38.8295C14.1146 37.0492 13.6449 34.8939 13.6449 32.3636C13.6449 29.8258 14.1222 27.6667 15.0767 25.8864C16.0313 24.1061 17.3267 22.75 18.9631 21.8182C20.5994 20.8788 22.4403 20.4091 24.4858 20.4091C25.8343 20.4091 27.0843 20.5985 28.2358 20.9773C29.3949 21.3561 30.4214 21.9091 31.3153 22.6364C32.2093 23.3561 32.9366 24.2386 33.4972 25.2841C34.0653 26.3295 34.429 27.5265 34.5881 28.875ZM59.5028 32.3636C59.5028 34.9015 59.0218 37.0606 58.0597 38.8409C57.1051 40.6212 55.8021 41.9811 54.1506 42.9205C52.5066 43.8523 50.6581 44.3182 48.6051 44.3182C46.5369 44.3182 44.6809 43.8485 43.0369 42.9091C41.393 41.9697 40.0938 40.6098 39.1392 38.8295C38.1847 37.0492 37.7074 34.8939 37.7074 32.3636C37.7074 29.8258 38.1847 27.6667 39.1392 25.8864C40.0938 24.1061 41.393 22.75 43.0369 21.8182C44.6809 20.8788 46.5369 20.4091 48.6051 20.4091C50.6581 20.4091 52.5066 20.8788 54.1506 21.8182C55.8021 22.75 57.1051 24.1061 58.0597 25.8864C59.0218 27.6667 59.5028 29.8258 59.5028 32.3636ZM54.5142 32.3636C54.5142 30.7197 54.268 29.3333 53.7756 28.2045C53.2907 27.0758 52.6051 26.2197 51.7188 25.6364C50.8324 25.053 49.7945 24.7614 48.6051 24.7614C47.4157 24.7614 46.3778 25.053 45.4915 25.6364C44.6051 26.2197 43.9157 27.0758 43.4233 28.2045C42.9384 29.3333 42.696 30.7197 42.696 32.3636C42.696 34.0076 42.9384 35.3939 43.4233 36.5227C43.9157 37.6515 44.6051 38.5076 45.4915 39.0909C46.3778 39.6742 47.4157 39.9659 48.6051 39.9659C49.7945 39.9659 50.8324 39.6742 51.7188 39.0909C52.6051 38.5076 53.2907 37.6515 53.7756 36.5227C54.268 35.3939 54.5142 34.0076 54.5142 32.3636Z" fill="black"/>
</svg>
